<svg width="18" height="18" viewBox="0 0 18 18" xmlns="http://www.w3.org/2000/svg">
    <g stroke="#1B115C" stroke-width="1.5" fill="none" fill-rule="evenodd" stroke-linecap="round" stroke-linejoin="round">
        <path d="M12 15h4.5v-3.75c0-.75 0-1.5-.75-2.25l-1.5-.75c.75-.75.75-1.5.75-1.5v-1.5c0-.71-.75-1.5-1.5-1.5h-.75c-.75 0-1.5.75-1.5 1.5V6c0 .75 0 1.5.75 2.25L10.5 9"/>
        <path d="M12 16.5v-5.25c0-.75-.454-1.55-1.5-2.25L8.25 7.5S9 6.75 9 5.25v-1.5C9 3 8.25 1.5 6.75 1.5S4.5 3 4.5 3.75v1.5c0 1.5.75 2.25.75 2.25L3 9c-1.047.7-1.5 1.5-1.5 2.25v5.25H12z"/>
    </g>
</svg>
